<?xml version="1.0" standalone="no"?><svg xmlns="http://www.w3.org/2000/svg" viewBox="0 0 1440 320"><path fill="#5000ca" fill-opacity="1" d="M0,160L17.1,160C34.3,160,69,160,103,165.3C137.1,171,171,181,206,197.3C240,213,274,235,309,224C342.9,213,377,171,411,154.7C445.7,139,480,149,514,154.7C548.6,160,583,160,617,138.7C651.4,117,686,75,720,69.3C754.3,64,789,96,823,122.7C857.1,149,891,171,926,149.3C960,128,994,64,1029,64C1062.9,64,1097,128,1131,154.7C1165.7,181,1200,171,1234,149.3C1268.6,128,1303,96,1337,101.3C1371.4,107,1406,149,1423,170.7L1440,192L1440,0L1422.9,0C1405.7,0,1371,0,1337,0C1302.9,0,1269,0,1234,0C1200,0,1166,0,1131,0C1097.1,0,1063,0,1029,0C994.3,0,960,0,926,0C891.4,0,857,0,823,0C788.6,0,754,0,720,0C685.7,0,651,0,617,0C582.9,0,549,0,514,0C480,0,446,0,411,0C377.1,0,343,0,309,0C274.3,0,240,0,206,0C171.4,0,137,0,103,0C68.6,0,34,0,17,0L0,0Z"></path></svg>