<?xml version="1.0" standalone="no"?><svg xmlns="http://www.w3.org/2000/svg" viewBox="0 0 1440 320"><path fill="#5000ca" fill-opacity="1" d="M0,160L17.1,160C34.3,160,69,160,103,165.3C137.1,171,171,181,206,197.3C240,213,274,235,309,224C342.9,213,377,171,411,154.7C445.7,139,480,149,514,154.7C548.6,160,583,160,617,138.7C651.4,117,686,75,720,69.3C754.3,64,789,96,823,122.7C857.1,149,891,171,926,149.3C960,128,994,64,1029,64C1062.9,64,1097,128,1131,154.7C1165.7,181,1200,171,1234,149.3C1268.6,128,1303,96,1337,101.3C1371.4,107,1406,149,1423,170.7L1440,192L1440,320L1422.9,320C1405.7,320,1371,320,1337,320C1302.9,320,1269,320,1234,320C1200,320,1166,320,1131,320C1097.1,320,1063,320,1029,320C994.3,320,960,320,926,320C891.4,320,857,320,823,320C788.6,320,754,320,720,320C685.7,320,651,320,617,320C582.9,320,549,320,514,320C480,320,446,320,411,320C377.1,320,343,320,309,320C274.3,320,240,320,206,320C171.4,320,137,320,103,320C68.6,320,34,320,17,320L0,320Z"></path></svg>